HIERARCHY
ROOT root
{
	OFFSET	0	13.1	24.9
	CHANNELS 6  Xposition Yposition Zposition Xrotation Yrotation Zrotation
	JOINT spine_1
	{
		OFFSET	0	9.99999	0
		CHANNELS 3  Xrotation Yrotation Zrotation
		JOINT spine_2
		{
			OFFSET	0	112	-10
			CHANNELS 3  Xrotation Yrotation Zrotation
			JOINT spine_3
			{
				OFFSET	0	206.5	19.3
				CHANNELS 3  Xrotation Yrotation Zrotation
				JOINT spine_4
				{
					OFFSET	0	110.4	14.6
					CHANNELS 3  Xrotation Yrotation Zrotation
					JOINT neck_1
					{
						OFFSET	0	71.8	-50.3
						CHANNELS 3  Xrotation Yrotation Zrotation
						JOINT neck_2
						{
							OFFSET	0	86.2	-25.8
							CHANNELS 3  Xrotation Yrotation Zrotation
							JOINT head_ee
							{
								OFFSET	0	179.8	-8.7
								CHANNELS 3  Xrotation Yrotation Zrotation
								End Site
								{
									OFFSET	1	0	0
								}
							}
						}
					}
					JOINT left_clavicle
					{
						OFFSET	-43.2	22.4	-70.8
						CHANNELS 3  Xrotation Yrotation Zrotation
						JOINT left_shoulder
						{
							OFFSET	-93.9	-5.79999	48.7
							CHANNELS 3  Xrotation Yrotation Zrotation
							JOINT left_elbow
							{
								OFFSET	-291.4	-30.8	15.2
								CHANNELS 3  Xrotation Yrotation Zrotation
								JOINT left_lowarm_twist
								{
									OFFSET	-110.7	-3.89999	13.6
									CHANNELS 3  Xrotation Yrotation Zrotation
									JOINT left_hand
									{
										OFFSET	-110.7	-3.89999	13.6
										CHANNELS 3  Xrotation Yrotation Zrotation
										JOINT left_ee
										{
											OFFSET	-80.8	-5.10001	12.1
											CHANNELS 3  Xrotation Yrotation Zrotation
											End Site
											{
												OFFSET	1	0	0
											}
										}
									}
								}
							}
						}
					}
					JOINT right_clavicle
					{
						OFFSET	43.2	22.4	-70.8
						CHANNELS 3  Xrotation Yrotation Zrotation
						JOINT right_shoulder
						{
							OFFSET	93.9	-5.79999	48.7
							CHANNELS 3  Xrotation Yrotation Zrotation
							JOINT right_elbow
							{
								OFFSET	291.4	-30.8	15.2
								CHANNELS 3  Xrotation Yrotation Zrotation
								JOINT right_lowarm_twist
								{
									OFFSET	110.7	-3.89999	13.6
									CHANNELS 3  Xrotation Yrotation Zrotation
									JOINT right_hand
									{
										OFFSET	110.7	-3.89999	13.6
										CHANNELS 3  Xrotation Yrotation Zrotation
										JOINT right_ee
										{
											OFFSET	80.8	-5.10001	12.1
											CHANNELS 3  Xrotation Yrotation Zrotation
											End Site
											{
												OFFSET	1	0	0
											}
										}
									}
								}
							}
						}
					}
				}
			}
		}
	}
	JOINT left_hip
	{
		OFFSET	-82.8	-127.5	0.300001
		CHANNELS 3  Xrotation Yrotation Zrotation
		JOINT left_knee
		{
			OFFSET	-28.2	-396.7	2.2
			CHANNELS 3  Xrotation Yrotation Zrotation
			JOINT left_ankle
			{
				OFFSET	-11.7	-411.3	35.4
				CHANNELS 3  Xrotation Yrotation Zrotation
				JOINT left_toes
				{
					OFFSET	0	-60	-88.6
					CHANNELS 3  Xrotation Yrotation Zrotation
					JOINT left_foot_ee
					{
						OFFSET	-22.5	-16.5	-42.2
						CHANNELS 3  Xrotation Yrotation Zrotation
						End Site
						{
							OFFSET	1	0	0
						}
					}
				}
			}
		}
	}
	JOINT right_hip
	{
		OFFSET	82.8	-127.5	0.300001
		CHANNELS 3  Xrotation Yrotation Zrotation
		JOINT right_knee
		{
			OFFSET	28.2	-396.7	2.2
			CHANNELS 3  Xrotation Yrotation Zrotation
			JOINT right_ankle
			{
				OFFSET	11.7	-411.3	35.4
				CHANNELS 3  Xrotation Yrotation Zrotation
				JOINT right_toes
				{
					OFFSET	0	-60	-88.6
					CHANNELS 3  Xrotation Yrotation Zrotation
					JOINT right_foot_ee
					{
						OFFSET	22.5	-16.5	-42.2
						CHANNELS 3  Xrotation Yrotation Zrotation
						End Site
						{
							OFFSET	1	0	0
						}
					}
				}
			}
		}
	}
}
MOTION
Frames: 10
Frame Time: 0.02
1157.85820213 720.779 -1789.77060506 -13.3793675382 18.1165991588 -0.818069970041 4.24998 0.677526 2.82877 4.25429 0.496227 2.86611 4.2763 0.1001 2.90699 4.26494 0.557761 2.85478 3.08436 9.66477 -5.45112 3.77004 21.4651 -5.5406 -0.0 0.0 -0.0 -1.55661 18.9099 -0.122486 -18.7832 -30.8335 71.6151 0.705184 -19.2558 0.119627 -28.1118 -1.78445 3.08293 -1.98757 3.26055 -11.8582 -0.0 0.0 -0.0 12.8803 26.8989 -25.2926 -8.93049 -4.76398 -74.3503 2.15541 46.87 -0.934383 -47.4782 3.77923 -4.54455 1.86937 3.05529 -11.349 0.0 0.0 0.0 31.6837 7.36226 3.54788 -52.8072 -1.47535 7.68699 40.7592 21.4178 -5.13372 8.27236 -0.0 -0.0 -0.0 0.0 -0.0 26.5139 6.87429 4.13526 -24.0175 -0.226354 -3.65182 21.7229 16.5059 3.20623 1.7706 -0.0 -0.0 0.0 0.0 0.0 
1147.7655226 719.366 -1805.43446808 -12.4800851341 16.0587066875 -1.14374620165 4.10666 0.592248 2.76169 4.11081 0.415385 2.79374 4.12853 0.0225119 2.82434 4.1177 0.468106 2.7854 2.28063 10.2827 -5.84426 3.01911 22.9321 -5.80009 -0.0 0.0 -0.0 -0.800038 15.1239 0.500332 -16.174 -27.9836 75.5938 0.449999 -12.5669 0.049549 -26.882 -1.67596 2.96854 -1.81877 5.29904 -9.75991 -0.0 0.0 -0.0 12.5159 26.9138 -24.4537 -7.75092 -1.16453 -73.5687 2.26818 48.3241 -1.01766 -47.9006 3.82781 -4.56862 1.90132 3.72184 -11.2924 0.0 0.0 0.0 34.9262 2.80729 3.1977 -51.9761 -1.39859 7.5845 39.5469 24.3568 -5.10386 7.51428 -0.0 -0.0 -0.0 0.0 -0.0 24.3087 6.53539 4.7337 -23.3995 -0.239806 -3.55793 24.6873 16.2475 3.57567 1.50431 -0.0 -0.0 0.0 0.0 0.0 
1143.30204579 719.366 -1802.35834257 -12.529792824 16.8183229921 -0.96809610806 4.10666 0.592248 2.76169 4.11081 0.415385 2.79374 4.12853 0.0225119 2.82434 4.1177 0.468106 2.7854 2.28063 10.2827 -5.84426 3.01911 22.9321 -5.80009 -0.0 0.0 -0.0 -0.800038 15.1239 0.500332 -16.174 -27.9836 75.5938 0.449999 -12.5669 0.049549 -26.882 -1.67596 2.96854 -1.81877 5.29904 -9.75991 -0.0 0.0 -0.0 12.5159 26.9138 -24.4537 -7.75092 -1.16453 -73.5687 2.26818 48.3241 -1.01766 -47.9006 3.82781 -4.56862 1.90132 3.72184 -11.2924 0.0 0.0 0.0 34.9262 2.80729 3.1977 -51.9761 -1.39859 7.5845 39.5469 24.3568 -5.10386 7.51428 -0.0 -0.0 -0.0 0.0 -0.0 24.3087 6.53539 4.7337 -23.3995 -0.239806 -3.55793 24.6873 16.2475 3.57567 1.50431 -0.0 -0.0 0.0 0.0 0.0 
1103.36578947 718.911 -1828.0772459 -11.4763095092 17.5876126214 -0.372424049128 4.25891 0.48429 2.31887 4.26184 0.335795 2.34497 4.27367 0.0121028 2.36885 4.26604 0.385962 2.33724 0.15435 11.4265 -6.77479 0.943553 25.8562 -6.29327 -0.0 0.0 -0.0 0.0387885 10.7491 1.3382 -14.4747 -24.2826 79.145 0.237114 -6.69937 0.0138782 -25.1445 -1.52693 2.80307 -1.48385 7.66329 -6.4484 -0.0 0.0 -0.0 12.1475 26.8196 -23.6224 -5.91294 4.11151 -72.7777 2.53219 51.4294 -1.21961 -48.1315 3.85444 -4.58163 1.99503 6.06227 -10.9539 0.0 0.0 0.0 38.3169 4.08249 -0.589466 -50.291 -1.24761 7.37339 35.9411 26.2354 -4.79853 6.37696 -0.0 -0.0 -0.0 0.0 -0.0 20.0699 0.213459 5.22294 -21.1724 -0.279861 -3.21857 27.2926 15.5657 3.87199 0.854355 -0.0 -0.0 0.0 0.0 0.0 
1080.7834994 716.792 -1838.31564801 -10.9179260294 19.0341285419 0.361123436942 4.33377 0.504942 2.16697 4.33631 0.366063 2.19469 4.34861 0.0655669 2.22403 4.34195 0.415903 2.1858 -1.2944 11.6779 -7.21554 -0.563909 26.7353 -6.39084 -0.0 0.0 -0.0 -0.0133154 9.16194 1.06284 -13.7904 -23.5807 81.8075 0.209661 -5.92963 0.0108588 -24.7472 -1.49357 2.76461 -1.40444 8.49014 -5.55146 -0.0 0.0 -0.0 12.0426 26.5535 -23.4146 -4.16209 5.86011 -72.4506 2.65417 52.7353 -1.31585 -48.696 3.91976 -4.61297 1.98046 6.53861 -10.6514 0.0 0.0 0.0 39.7157 0.326317 -1.37829 -48.7698 -1.11672 7.17913 32.0643 26.1854 -4.37396 5.08596 -0.0 -0.0 -0.0 0.0 -0.0 17.7535 0.049663 5.44034 -20.3694 -0.291065 -3.09585 28.9716 16.1509 4.08341 0.914378 -0.0 -0.0 0.0 0.0 0.0 
1056.46180034 714.348 -1842.27206011 -11.0092594859 22.3031007207 1.40918983147 4.4283 0.533733 2.01324 4.43047 0.404571 2.04311 4.44337 0.127708 2.07885 4.43763 0.454352 2.03262 -2.13533 11.9484 -7.31524 -1.45263 27.3374 -6.24892 -0.0 0.0 -0.0 -0.181065 7.42442 0.558883 -12.819 -23.02 83.3211 0.205358 -5.80875 0.0104187 -24.4139 -1.46579 2.73216 -1.29583 9.02693 -4.60345 -0.0 0.0 -0.0 12.1938 26.8614 -23.7231 -2.67334 7.43253 -71.389 2.7514 53.7229 -1.39374 -48.9226 3.94606 -4.62537 1.97701 6.97479 -10.4415 0.0 0.0 0.0 41.5152 -0.556297 -2.27749 -46.9124 -0.96402 6.93741 28.8489 25.9939 -3.99715 4.184 -0.0 -0.0 -0.0 0.0 -0.0 16.2572 -2.6787 5.65224 -19.7399 -0.298643 -2.99957 29.9224 16.2222 4.19337 0.852951 -0.0 -0.0 0.0 0.0 0.0 
1028.56148809 709.269 -1842.86730087 -11.0876812699 24.5724644056 2.08175154462 4.51288 0.568141 2.16711 4.51539 0.429125 2.19885 4.53003 0.134617 2.23627 4.52338 0.48602 2.18699 -3.61274 12.2722 -6.77807 -3.09496 27.5718 -5.23475 -0.0 0.0 -0.0 -0.472944 5.42245 -0.218271 -12.2371 -22.279 84.2023 0.202147 -5.71855 0.0100963 -23.4213 -1.38418 2.6346 -1.11547 9.39365 -3.27545 -0.0 0.0 -0.0 12.1533 27.0945 -23.6026 -0.833038 8.71445 -70.5594 2.90399 55.1843 -1.5179 -49.0813 3.96452 -4.63399 1.94239 7.65158 -9.91407 0.0 0.0 0.0 42.5659 -1.53994 -3.11993 -42.586 -0.639429 6.35645 23.5826 26.7855 -3.36676 2.33726 -0.0 -0.0 -0.0 0.0 -0.0 14.8849 -4.60393 5.8742 -19.4229 -0.302058 -2.95105 30.9222 16.2397 4.30513 0.937221 -0.0 -0.0 0.0 0.0 0.0 
1015.59129046 709.269 -1830.30602345 -11.2786127109 26.5896753209 2.52386941633 4.51288 0.568141 2.16711 4.51539 0.429125 2.19885 4.53003 0.134617 2.23627 4.52338 0.48602 2.18699 -3.61274 12.2722 -6.77807 -3.09496 27.5718 -5.23475 -0.0 0.0 -0.0 -0.472944 5.42245 -0.218271 -12.2371 -22.279 84.2023 0.202147 -5.71855 0.0100963 -23.4213 -1.38418 2.6346 -1.11547 9.39365 -3.27545 -0.0 0.0 -0.0 12.1533 27.0945 -23.6026 -0.833038 8.71445 -70.5594 2.90399 55.1843 -1.5179 -49.0813 3.96452 -4.63399 1.94239 7.65158 -9.91407 0.0 0.0 0.0 42.5659 -1.53994 -3.11993 -42.586 -0.639429 6.35645 23.5826 26.7855 -3.36676 2.33726 -0.0 -0.0 -0.0 0.0 -0.0 14.8849 -4.60393 5.8742 -19.4229 -0.302058 -2.95105 30.9222 16.2397 4.30513 0.937221 -0.0 -0.0 0.0 0.0 0.0 
1002.43129769 702.965 -1838.41073468 -12.0159893079 27.8674666448 3.52853830114 4.5242 0.488095 1.96213 4.52627 0.362275 1.9892 4.53733 0.0962877 2.01962 4.53188 0.413977 1.97909 -5.08508 11.1987 -6.80683 -4.73759 25.6703 -5.04635 -0.0 0.0 -0.0 -1.10572 4.77065 -1.46662 -11.0057 -21.961 85.366 0.295622 -8.3315 0.0215315 -22.8114 -1.33488 2.57396 -0.692976 10.2041 -0.21064 -0.0 0.0 -0.0 12.3926 27.1597 -24.1413 0.18321 9.78183 -68.2346 2.9027 55.1724 -1.51684 -49.7828 4.04636 -4.6715 1.6904 7.9699 -8.05552 0.0 0.0 0.0 42.6947 -5.11339 -3.32051 -39.0749 -0.408966 5.86836 17.9621 23.0552 -2.57131 -1.67724 0.0 0.0 -0.0 0.0 -0.0 14.2896 -5.34878 6.57176 -19.1176 -0.305094 -2.9043 33.3117 19.1544 4.66278 0.612624 -0.0 -0.0 0.0 0.0 0.0 
988.132070042 699.645 -1845.41624092 -13.3423284261 29.7196420934 4.48617910691 4.61162 0.4755 2.05113 4.61389 0.344047 2.07721 4.62464 0.0697866 2.10434 4.61868 0.401181 2.06694 -5.52225 11.5914 -6.74328 -5.2059 26.3526 -4.80114 -0.0 0.0 -0.0 -1.73176 4.75248 -2.62434 -10.4892 -22.3834 86.103 0.367952 -10.3303 0.0332606 -22.2014 -1.28624 2.51281 -0.72276 9.70181 -0.617669 -0.0 0.0 -0.0 12.3041 26.9238 -23.9676 1.58244 10.8182 -67.9716 3.09155 56.8446 -1.67344 -50.0722 4.08025 -4.68667 1.8967 8.35261 -9.29943 0.0 0.0 0.0 41.6033 -7.83878 -3.98351 -25.7347 0.183666 3.91188 15.9591 28.3824 -2.37388 -2.57853 0.0 0.0 -0.0 0.0 -0.0 14.5822 -5.60365 6.54509 -20.2166 -0.293001 -3.07248 34.1305 16.6895 4.66131 0.748661 -0.0 -0.0 0.0 0.0 0.0 
